<svg width="34" height="39" viewBox="0 0 34 39" fill="none" xmlns="http://www.w3.org/2000/svg">
<path d="M30.3571 2.42847H3.64286C1.6317 2.42847 0 4.06016 0 6.07132V32.7856C0 34.7968 1.6317 36.4285 3.64286 36.4285H30.3571C32.3683 36.4285 34 34.7968 34 32.7856V6.07132C34 4.06016 32.3683 2.42847 30.3571 2.42847ZM9.63839 29.1807C9.22098 29.9093 8.2875 30.1521 7.56652 29.7347C6.83795 29.3173 6.59509 28.3838 7.0125 27.6628L8.09777 25.7883C9.31964 25.4164 10.3214 25.7048 11.1031 26.6535L9.63839 29.1807ZM20.1799 25.0901H6.375C5.54018 25.0901 4.85714 24.407 4.85714 23.5722C4.85714 22.7374 5.54018 22.0544 6.375 22.0544H10.2455L15.2089 13.4633L13.6531 10.7767C13.2357 10.0481 13.4862 9.12222 14.2071 8.7048C14.9357 8.28739 15.8616 8.53784 16.279 9.25882L16.9545 10.4276L17.6299 9.25882C18.0473 8.53025 18.9808 8.28739 19.7018 8.7048C20.4304 9.12222 20.6732 10.0557 20.2558 10.7767L13.7442 22.0544H18.4571C19.9902 22.0544 20.8478 23.853 20.1799 25.0901ZM27.625 25.0901H25.4241L26.9116 27.6628C27.329 28.3914 27.0786 29.3173 26.3576 29.7347C25.629 30.1521 24.7031 29.9017 24.2857 29.1807C21.7888 24.8624 19.9219 21.6142 18.6696 19.4588C17.4022 17.2579 18.3054 15.057 19.2085 14.3133C20.2027 16.0361 21.6902 18.6164 23.6786 22.0544H27.625C28.4598 22.0544 29.1429 22.7374 29.1429 23.5722C29.1429 24.4146 28.4598 25.0901 27.625 25.0901Z" fill="#0478F9"/>
</svg>
