<svg width="34" height="34" viewBox="0 0 34 34" fill="none" xmlns="http://www.w3.org/2000/svg">
<g clip-path="url(#clip0)">
<path d="M4.71961 11.0129C4.13379 11.0129 3.63674 11.2172 3.22816 11.6258C2.81959 12.0344 2.61523 12.5247 2.61523 13.0969V21.8829C2.61523 22.4695 2.81952 22.9661 3.22816 23.3747C3.63674 23.7833 4.13379 23.9877 4.71961 23.9877C5.305 23.9877 5.79903 23.7834 6.20128 23.3747C6.60273 22.9661 6.804 22.4695 6.804 21.8829V13.0969C6.804 12.5246 6.59971 12.0344 6.19107 11.6258C5.78243 11.2172 5.29184 11.0129 4.71961 11.0129Z" fill="#0478F9"/>
<path d="M21.6381 3.12593L23.0889 0.449694C23.1841 0.272516 23.1502 0.136651 22.9869 0.0411148C22.8097 -0.041265 22.6735 0.000478168 22.5784 0.163394L21.1073 2.86103C19.8129 2.28873 18.4439 2.00206 17.0002 2.00206C15.5562 2.00206 14.187 2.28879 12.8931 2.86103L11.422 0.163394C11.3264 0.000478168 11.1903 -0.0408962 11.0135 0.0411148C10.8498 0.137081 10.8159 0.272516 10.9115 0.449694L12.3623 3.12593C10.8912 3.87614 9.7196 4.92095 8.84785 6.26264C7.9761 7.60506 7.54004 9.07203 7.54004 10.6661H26.4398C26.4398 9.0724 26.0037 7.60537 25.132 6.26264C24.2602 4.92095 23.0953 3.87614 21.6381 3.12593ZM13.2506 7.01856C13.0937 7.17582 12.9063 7.25408 12.6885 7.25408C12.4702 7.25408 12.2867 7.17582 12.1369 7.01856C11.9871 6.86204 11.9123 6.6754 11.9123 6.45684C11.9123 6.23903 11.9871 6.05201 12.1369 5.89512C12.2867 5.7386 12.4707 5.66034 12.6885 5.66034C12.9063 5.66034 13.0937 5.7386 13.2506 5.89512C13.4071 6.05238 13.4857 6.23903 13.4857 6.45684C13.4853 6.67503 13.4067 6.86204 13.2506 7.01856ZM21.8627 7.01856C21.7126 7.17582 21.5286 7.25408 21.3112 7.25408C21.0929 7.25408 20.9056 7.17582 20.749 7.01856C20.5921 6.86204 20.5139 6.6754 20.5139 6.45684C20.5139 6.23903 20.5921 6.05201 20.749 5.89512C20.9056 5.7386 21.0929 5.66034 21.3112 5.66034C21.529 5.66034 21.7126 5.7386 21.8627 5.89512C22.0126 6.05238 22.0873 6.23903 22.0873 6.45684C22.0873 6.67503 22.0125 6.86204 21.8627 7.01856Z" fill="#0478F9"/>
<path d="M7.62109 25.0094C7.62109 25.6366 7.83891 26.1675 8.2746 26.6032C8.71066 27.0389 9.24158 27.2567 9.86834 27.2567H11.3804L11.4012 31.8954C11.4012 32.4812 11.6055 32.9786 12.014 33.3873C12.4226 33.7959 12.9133 34.0002 13.4851 34.0002C14.0706 34.0002 14.5679 33.7959 14.9766 33.3873C15.3852 32.9786 15.5895 32.4813 15.5895 31.8954V27.2572H18.4091V31.8954C18.4091 32.4812 18.6133 32.9786 19.022 33.3873C19.4306 33.7959 19.9275 34.0002 20.5134 34.0002C21.0989 34.0002 21.5962 33.7959 22.0049 33.3873C22.4135 32.9786 22.6177 32.4813 22.6177 31.8954V27.2572H24.1502C24.7631 27.2572 25.2872 27.0393 25.7237 26.6036C26.1593 26.1679 26.3773 25.637 26.3773 25.0098V11.4011H7.62109V25.0094Z" fill="#0478F9"/>
<path d="M29.2803 11.0129C28.708 11.0129 28.2178 11.2142 27.8092 11.6157C27.4006 12.0179 27.1963 12.5119 27.1963 13.0969V21.8829C27.1963 22.4695 27.4005 22.9661 27.8092 23.3747C28.2178 23.7834 28.7084 23.9877 29.2803 23.9877C29.8658 23.9877 30.3631 23.7834 30.7718 23.3747C31.1804 22.9661 31.3846 22.4695 31.3846 21.8829V13.0969C31.3846 12.5118 31.1804 12.0179 30.7718 11.6157C30.3631 11.2142 29.8658 11.0129 29.2803 11.0129Z" fill="#0478F9"/>
</g>
<defs>
<clipPath id="clip0">
<rect width="34" height="34" fill="white"/>
</clipPath>
</defs>
</svg>
