<svg width="34" height="42" viewBox="0 0 34 42" fill="none" xmlns="http://www.w3.org/2000/svg">
<path d="M28.4267 21.8086C28.4086 18.4272 29.9081 15.875 32.9431 13.9955C31.245 11.517 28.6796 10.1534 25.2922 9.8862C22.0855 9.62821 18.5808 11.7934 17.2981 11.7934C15.9431 11.7934 12.8358 9.97833 10.3969 9.97833C5.35654 10.0613 0 14.0784 0 22.2508C0 24.6648 0.433581 27.1586 1.30074 29.7323C2.45696 33.1137 6.63018 41.4059 10.9841 41.2677C13.2604 41.2124 14.8682 39.6185 17.831 39.6185C20.7035 39.6185 22.1939 41.2677 24.7322 41.2677C29.1222 41.2032 32.898 33.6665 34 30.2759C28.1105 27.4473 28.4267 21.9837 28.4267 21.8086ZM23.314 6.67986C25.78 3.69465 25.5542 0.976642 25.4819 0C23.305 0.12899 20.7848 1.51103 19.3486 3.21555C17.7678 5.03984 16.8374 7.29717 17.0361 9.84013C19.3937 10.0244 21.5436 8.78978 23.314 6.67986Z" fill="#0478F9"/>
</svg>
