<svg width="50" height="44" viewBox="0 0 50 44" fill="none" xmlns="http://www.w3.org/2000/svg">
<path d="M46.3913 0.953613H3.60869C1.61572 0.953613 0 2.56933 0 4.5623V11.1533H50V4.5623C50 2.56933 48.3844 0.953613 46.3913 0.953613ZM6.2583 7.60908C5.39297 7.60908 4.69141 6.90752 4.69141 6.04218C4.69141 5.17685 5.39287 4.47529 6.2583 4.47529C7.12363 4.47529 7.82519 5.17685 7.82519 6.04218C7.82519 6.90752 7.12363 7.60908 6.2583 7.60908ZM12.6294 7.60908C11.7641 7.60908 11.0625 6.90752 11.0625 6.04218C11.0625 5.17685 11.764 4.47529 12.6294 4.47529C13.4947 4.47529 14.1963 5.17685 14.1963 6.04218C14.1963 6.90752 13.4947 7.60908 12.6294 7.60908ZM19.2893 7.60908C18.4239 7.60908 17.7224 6.90752 17.7224 6.04218C17.7224 5.17685 18.4239 4.47529 19.2893 4.47529C20.1546 4.47529 20.8562 5.17685 20.8562 6.04218C20.8562 6.90752 20.1547 7.60908 19.2893 7.60908Z" fill="#0478F9"/>
<path d="M0 14.2666V39.438C0 41.4311 1.61572 43.0467 3.60869 43.0467H46.3913C48.3844 43.0467 50 41.4311 50 39.438V14.2666H0ZM16.4789 25.8878L14.4414 31.8153C14.2285 32.4347 13.6509 32.8544 12.9962 32.8657C12.9872 32.8658 12.9781 32.8659 12.9691 32.8659C12.3252 32.8659 11.7465 32.4688 11.5156 31.8657L10.7794 29.9419L10.1354 31.8153C9.92256 32.4347 9.34492 32.8544 8.69023 32.8657C8.68125 32.8658 8.67217 32.8659 8.66318 32.8659C8.01924 32.8659 7.44043 32.4688 7.20967 31.8657L4.94111 25.9382C4.63389 25.1354 5.03564 24.2354 5.83848 23.9281C6.64121 23.6204 7.54131 24.0226 7.84854 24.8255L8.58477 26.7493L9.22871 24.8759C9.54707 23.7473 11.4863 23.2664 12.1545 24.8255L12.8907 26.7493L13.5347 24.8759C13.8142 24.063 14.6997 23.6308 15.5127 23.9098C16.3259 24.1893 16.7584 25.0749 16.4789 25.8878ZM30.778 25.8878L28.7405 31.8153C28.5276 32.4347 27.95 32.8544 27.2953 32.8657C27.2863 32.8658 27.2772 32.8659 27.2683 32.8659C26.6243 32.8659 26.0455 32.4688 25.8147 31.8657L25.0785 29.9419L24.4346 31.8153C24.2217 32.4347 23.644 32.8544 22.9894 32.8657C22.9804 32.8658 22.9713 32.8659 22.9623 32.8659C22.3184 32.8659 21.7396 32.4688 21.5088 31.8657L19.2402 25.9382C18.933 25.1354 19.3348 24.2354 20.1376 23.9281C20.9404 23.6204 21.8404 24.0226 22.1477 24.8255L22.8839 26.7493L23.5278 24.8759C23.8846 23.6699 25.8763 23.3797 26.4536 24.8255L27.1898 26.7493L27.8338 24.8759C28.1133 24.063 28.9987 23.6308 29.8118 23.9098C30.625 24.1893 31.0575 25.0749 30.778 25.8878ZM45.0772 25.8878L43.0397 31.8153C42.8269 32.4347 42.2492 32.8544 41.5945 32.8657C41.5855 32.8658 41.5765 32.8659 41.5675 32.8659C40.9235 32.8659 40.3447 32.4688 40.114 31.8657L39.3777 29.9419L38.7338 31.8153C38.5209 32.4347 37.9433 32.8544 37.2886 32.8657C37.2796 32.8658 37.2705 32.8659 37.2615 32.8659C36.6176 32.8659 36.0389 32.4688 35.808 31.8657L33.5394 25.9382C33.2321 25.1354 33.6339 24.2354 34.4367 23.9281C35.2397 23.6204 36.1396 24.0226 36.4469 24.8255L37.1832 26.7494L37.8271 24.8759C38.1802 23.7162 40.1028 23.2871 40.7529 24.8255L41.4892 26.7493L42.1331 24.8759C42.4126 24.063 43.2982 23.6308 44.1111 23.9098C44.9241 24.1893 45.3566 25.0749 45.0772 25.8878Z" fill="#0478F9"/>
</svg>
