<svg width="50" height="44" viewBox="0 0 50 44" fill="none" xmlns="http://www.w3.org/2000/svg">
<path d="M48.7757 1.5575C47.9599 0.741609 46.9794 0.333252 45.8331 0.333252H4.16667C3.02086 0.333252 2.04024 0.741609 1.22379 1.5575C0.40781 2.37367 0 3.3542 0 4.5001V32.8336C0 33.9798 0.40781 34.9603 1.22379 35.7766C2.04024 36.5925 3.02086 37.0001 4.16667 37.0001H18.3336C18.3336 37.6597 18.1946 38.3374 17.9167 39.0313C17.6391 39.7258 17.3612 40.3332 17.0834 40.8538C16.8059 41.3751 16.667 41.7566 16.667 41.9995C16.667 42.4508 16.8319 42.8423 17.1618 43.1713C17.4915 43.5015 17.8822 43.667 18.3336 43.667H31.6669C32.1183 43.667 32.509 43.5016 32.8388 43.1713C33.169 42.8424 33.3338 42.4509 33.3338 41.9995C33.3338 41.7744 33.1946 41.3965 32.9169 40.8671C32.639 40.3379 32.3612 39.7209 32.0837 39.0185C31.8059 38.3152 31.667 37.6425 31.667 37.0001H45.8339C46.9795 37.0001 47.9599 36.5925 48.7758 35.7766C49.5921 34.9603 50.0001 33.9799 50.0001 32.8336V4.5001C50.0004 3.3542 49.592 2.37367 48.7757 1.5575ZM46.6666 26.1668C46.6666 26.3926 46.5843 26.5876 46.4194 26.7528C46.2543 26.9173 46.0589 26.9997 45.8331 26.9997H4.16667C3.9411 26.9997 3.74572 26.9173 3.58081 26.7528C3.41599 26.5871 3.33344 26.3926 3.33344 26.1668V4.5001C3.33344 4.27435 3.41572 4.07916 3.58081 3.91425C3.74581 3.74961 3.94119 3.66688 4.16667 3.66688H45.8338C46.0592 3.66688 46.2549 3.74933 46.4194 3.91425C46.5843 4.07925 46.6666 4.27444 46.6666 4.5001V26.1668Z" fill="#0478F9"/>
</svg>
