<svg width="16" height="20" viewBox="0 0 16 20" fill="none" xmlns="http://www.w3.org/2000/svg">
<path fill-rule="evenodd" clip-rule="evenodd" d="M13.0622 5.77959V7.18515C14.641 7.67796 15.7913 9.10721 15.7913 10.8143V15.3398C15.7913 17.4531 14.0393 19.1666 11.8792 19.1666H4.12107C1.96008 19.1666 0.208008 17.4531 0.208008 15.3398V10.8143C0.208008 9.10721 1.35929 7.67796 2.93719 7.18515V5.77959C2.9465 3.04681 5.20995 0.833252 7.9857 0.833252C10.7987 0.833252 13.0622 3.04681 13.0622 5.77959ZM8.00432 2.42738C9.89519 2.42738 11.4321 3.93041 11.4321 5.77959V6.98748H4.56724V5.76137C4.57655 3.9213 6.11346 2.42738 8.00432 2.42738ZM8.81471 14.0836C8.81471 14.53 8.45144 14.8852 7.99502 14.8852C7.54792 14.8852 7.18465 14.53 7.18465 14.0836V12.0613C7.18465 11.6241 7.54792 11.2688 7.99502 11.2688C8.45144 11.2688 8.81471 11.6241 8.81471 12.0613V14.0836Z" fill="#07132C"/>
</svg>
