<svg width="20" height="18" viewBox="0 0 20 18" fill="none" xmlns="http://www.w3.org/2000/svg">
<path fill-rule="evenodd" clip-rule="evenodd" d="M14.5281 0.75C15.7573 0.75 16.9398 1.23583 17.8097 2.10758C18.6806 2.9775 19.1673 4.15083 19.1673 5.37917V12.6208C19.1673 15.1783 17.0865 17.25 14.5281 17.25H5.47232C2.9139 17.25 0.833984 15.1783 0.833984 12.6208V5.37917C0.833984 2.82167 2.90473 0.75 5.47232 0.75H14.5281ZM15.9865 6.745L16.0598 6.67167C16.2789 6.40584 16.2789 6.02084 16.0497 5.755C15.9223 5.61842 15.7472 5.535 15.5648 5.51667C15.3723 5.50659 15.189 5.57167 15.0506 5.7L10.9173 9C10.3857 9.44092 9.62391 9.44092 9.08399 9L4.95899 5.7C4.67391 5.48917 4.27974 5.51667 4.04232 5.76417C3.79482 6.01167 3.76732 6.40584 3.97724 6.68084L4.09732 6.8L8.26816 10.0542C8.78149 10.4575 9.40391 10.6775 10.0557 10.6775C10.7056 10.6775 11.339 10.4575 11.8514 10.0542L15.9865 6.745Z" fill="#07132C"/>
</svg>
