<svg width="50" height="50" viewBox="0 0 50 50" fill="none" xmlns="http://www.w3.org/2000/svg">
<path d="M33.4903 0H16.5988C13.7271 0 11.2871 2.34152 11.2871 5.21243V44.7935C11.2871 47.6644 13.6755 50 16.5472 50L33.4664 49.9817C36.3377 49.9817 38.6868 47.6458 38.6868 44.7745L38.7114 5.20965C38.711 2.32842 36.3735 0 33.4903 0ZM22.6043 3.12507H27.505C27.9355 3.12507 28.2862 3.47456 28.2862 3.90624C28.2862 4.33793 27.9355 4.68741 27.505 4.68741H22.6043C22.1726 4.68741 21.8232 4.33793 21.8232 3.90624C21.8232 3.47456 22.1726 3.12507 22.6043 3.12507ZM19.6596 3.37368C19.9491 3.08457 20.4761 3.0806 20.7652 3.37368C20.9101 3.51824 20.9959 3.72118 20.9959 3.92848C20.9959 4.13182 20.9101 4.33436 20.7652 4.47931C20.621 4.62427 20.4173 4.70965 20.2144 4.70965C20.0075 4.70965 19.8085 4.62427 19.6596 4.47931C19.5154 4.33476 19.4332 4.13182 19.4332 3.92848C19.4328 3.72118 19.5154 3.51824 19.6596 3.37368ZM24.897 48.4516C23.6079 48.4516 22.5595 47.4023 22.5595 46.1136C22.5595 44.8245 23.6079 43.7757 24.897 43.7757C26.1861 43.7757 27.2346 44.8245 27.2346 46.1136C27.2346 47.4023 26.1857 48.4516 24.897 48.4516ZM36.2865 42.1867H14.0214V7.4221H36.2865V42.1867Z" fill="#0478F9"/>
</svg>
