<svg width="50" height="44" viewBox="0 0 50 44" fill="none" xmlns="http://www.w3.org/2000/svg">
<path d="M11.8164 1.49219C11.8164 0.683594 11.1602 0.0273438 10.3516 0.0273438C9.54297 0.0273438 8.88672 0.683594 8.88672 1.49219V23.4648H11.8164V1.49219Z" fill="#0478F9"/>
<path d="M41.1133 1.49219C41.1133 0.683594 40.457 0.0273438 39.6484 0.0273438C38.8398 0.0273438 38.1836 0.683594 38.1836 1.49219V23.4648H41.1133V1.49219Z" fill="#0478F9"/>
<path d="M46.582 26.3945H3.41797C1.5333 26.3945 0 27.9278 0 29.8125V37.625C0 39.5097 1.5333 41.043 3.41797 41.043H5.95703V42.5078C5.95703 43.3168 6.61289 43.9727 7.42188 43.9727C8.23086 43.9727 8.88672 43.3168 8.88672 42.5078V41.043H41.1133V42.5078C41.1133 43.3168 41.7691 43.9727 42.5781 43.9727C43.3871 43.9727 44.043 43.3168 44.043 42.5078V41.043H46.582C48.4667 41.043 50 39.5097 50 37.625V29.8125C50 27.9278 48.4667 26.3945 46.582 26.3945ZM7.42188 35.1836C6.61289 35.1836 5.95703 34.5277 5.95703 33.7188C5.95703 32.9098 6.61289 32.2539 7.42188 32.2539C8.23086 32.2539 8.88672 32.9098 8.88672 33.7188C8.88672 34.5277 8.23086 35.1836 7.42188 35.1836ZM19.1406 35.1836C18.3316 35.1836 17.6758 34.5277 17.6758 33.7188C17.6758 32.9098 18.3316 32.2539 19.1406 32.2539C19.9496 32.2539 20.6055 32.9098 20.6055 33.7188C20.6055 34.5277 19.9496 35.1836 19.1406 35.1836ZM25 35.1836C24.191 35.1836 23.5352 34.5277 23.5352 33.7188C23.5352 32.9098 24.191 32.2539 25 32.2539C25.809 32.2539 26.4648 32.9098 26.4648 33.7188C26.4648 34.5277 25.809 35.1836 25 35.1836ZM30.8594 35.1836C30.0504 35.1836 29.3945 34.5277 29.3945 33.7188C29.3945 32.9098 30.0504 32.2539 30.8594 32.2539C31.6684 32.2539 32.3242 32.9098 32.3242 33.7188C32.3242 34.5277 31.6684 35.1836 30.8594 35.1836ZM36.7188 35.1836C35.9098 35.1836 35.2539 34.5277 35.2539 33.7188C35.2539 32.9098 35.9098 32.2539 36.7188 32.2539C37.5277 32.2539 38.1836 32.9098 38.1836 33.7188C38.1836 34.5277 37.5277 35.1836 36.7188 35.1836Z" fill="#0478F9"/>
<path d="M17.7536 11.8238C19.693 9.88448 22.2666 8.81642 25 8.81642C27.7335 8.81642 30.3071 9.88448 32.2465 11.8238C32.5326 12.1099 32.9075 12.2529 33.2823 12.2529C33.6571 12.2529 34.0321 12.11 34.318 11.8238C34.8901 11.2518 34.8901 10.3243 34.318 9.75225C29.1606 4.59474 20.8403 4.59386 15.682 9.75225C15.1099 10.3243 15.1099 11.2518 15.682 11.8238C16.2541 12.396 17.1816 12.396 17.7536 11.8238Z" fill="#0478F9"/>
<path d="M24.1861 20.2879C25.1744 20.9385 26.4644 20.2263 26.4644 19.0701C26.4644 18.318 25.8931 17.6898 25.1441 17.6121C23.6149 17.4719 22.9349 19.443 24.1861 20.2879Z" fill="#0478F9"/>
<path d="M30.1799 15.962C30.7517 15.3897 30.7513 14.4622 30.1789 13.8904C28.7948 12.5076 26.9556 11.7461 25 11.7461C23.0445 11.7461 21.2053 12.5076 19.8211 13.8904C19.2488 14.4622 19.2484 15.3897 19.8202 15.962C20.3919 16.5344 21.3195 16.5348 21.8917 15.963C22.7227 15.1329 23.8265 14.6758 25 14.6758C26.1736 14.6758 27.2774 15.1329 28.1083 15.9631C28.6804 16.5347 29.6078 16.5346 30.1799 15.962Z" fill="#0478F9"/>
</svg>
