<svg width="56" height="56" viewBox="0 0 56 56" fill="none" xmlns="http://www.w3.org/2000/svg">
<g clip-path="url(#clip0)">
<path d="M55.9914 7.80214V34.4713C55.9914 36.4137 54.4339 37.9712 52.4915 37.9712H10.0028C8.06038 37.9712 6.50293 36.4137 6.50293 34.4713V7.80214C6.50293 5.8772 8.06038 4.30225 10.0028 4.30225H52.4915C54.4339 4.30225 55.9914 5.8772 55.9914 7.80214Z" fill="#6F7070"/>
<path d="M56.0001 10.6687H6.49414V16.3525H56.0001V10.6687Z" fill="#464646"/>
<path d="M43.089 5.73535H31.7949C30.8289 5.73535 30.0449 6.51758 30.0449 7.4853C30.0449 8.45301 30.8289 9.23524 31.7949 9.23524H43.089C44.055 9.23524 44.8389 8.45301 44.8389 7.4853C44.8389 6.51933 44.055 5.73535 43.089 5.73535Z" fill="#787878"/>
<path d="M51.2491 5.73535H48.1884C47.2225 5.73535 46.4385 6.51758 46.4385 7.4853C46.4385 8.45301 47.2225 9.23524 48.1884 9.23524H51.2491C52.215 9.23524 52.999 8.45301 52.999 7.4853C52.999 6.51933 52.2168 5.73535 51.2491 5.73535Z" fill="#787878"/>
<path d="M19.6635 11.7605H11.1308C10.1648 11.7605 9.38086 12.5427 9.38086 13.5104C9.38086 14.4782 10.1648 15.2604 11.1308 15.2604H19.6635C20.6295 15.2604 21.4135 14.4782 21.4135 13.5104C21.4135 12.5427 20.6313 11.7605 19.6635 11.7605Z" fill="#3E3E3E"/>
<path d="M27.8255 11.7605H24.7665C23.8006 11.7605 23.0166 12.5427 23.0166 13.5104C23.0166 14.4782 23.8006 15.2604 24.7665 15.2604H27.8255C28.7914 15.2604 29.5754 14.4782 29.5754 13.5104C29.5754 12.5427 28.7914 11.7605 27.8255 11.7605Z" fill="#3E3E3E"/>
<g opacity="0.07">
<path opacity="0.07" d="M55.9916 27.6992V34.4715C55.9916 36.4139 54.4341 37.9714 52.4917 37.9714H48.2568L49.4643 21.1719L55.9916 27.6992Z" fill="#010101"/>
</g>
<path d="M46.0026 51.6979H3.49989C1.5662 51.6979 0 50.1317 0 48.198V21.5236C0 19.5916 1.5662 18.0237 3.49989 18.0237H46.0026C47.9363 18.0237 49.5025 19.5916 49.5025 21.5236V48.1962C49.5025 50.1299 47.9363 51.6979 46.0026 51.6979Z" fill="#4B9FD8"/>
<path d="M22.6093 18.0237C11.6896 26.3009 4.00737 36.9056 0.0349989 48.5427C0.0174995 48.4027 0 48.2627 0 48.1052V21.4361C0 19.7736 1.15496 18.3737 2.71242 18.0237H22.6093Z" fill="#3A9BD6"/>
<path d="M26.8945 51.698C37.8142 43.4208 45.4965 32.8161 49.4688 21.179C49.4863 21.319 49.5038 21.4589 49.5038 21.6164V48.2856C49.5038 49.9481 48.3489 51.348 46.7914 51.698H26.8945Z" fill="#3A9BD6"/>
<path d="M33.8703 31.7992C36.2246 31.7992 38.1332 29.8906 38.1332 27.5363C38.1332 25.182 36.2246 23.2734 33.8703 23.2734C31.516 23.2734 29.6074 25.182 29.6074 27.5363C29.6074 29.8906 31.516 31.7992 33.8703 31.7992Z" fill="#FEE218"/>
<path d="M39.9914 31.7992C42.3457 31.7992 44.2543 29.8906 44.2543 27.5363C44.2543 25.182 42.3457 23.2734 39.9914 23.2734C37.6371 23.2734 35.7285 25.182 35.7285 27.5363C35.7285 29.8906 37.6371 31.7992 39.9914 31.7992Z" fill="#CD494C"/>
<path d="M14.6471 38.267H6.36811C5.40214 38.267 4.61816 37.4848 4.61816 36.517C4.61816 35.5493 5.40214 34.7671 6.36811 34.7671H14.6471C15.6131 34.7671 16.397 35.5493 16.397 36.517C16.397 37.483 15.6131 38.267 14.6471 38.267Z" fill="white"/>
<path d="M22.0424 29.2863H6.36811C5.40214 29.2863 4.61816 28.504 4.61816 27.5363C4.61816 26.5686 5.40214 25.7864 6.36811 25.7864H22.0424C23.0083 25.7864 23.7923 26.5686 23.7923 27.5363C23.7923 28.504 23.0083 29.2863 22.0424 29.2863Z" fill="white"/>
<path d="M11.4935 47.2477H6.36616C5.40019 47.2477 4.61621 46.4655 4.61621 45.4977C4.61621 44.53 5.40019 43.7478 6.36616 43.7478H11.4935C12.4595 43.7478 13.2434 44.53 13.2434 45.4977C13.2434 46.4637 12.4612 47.2477 11.4935 47.2477Z" fill="#8BD5EC"/>
<path d="M22.0423 47.2477H16.915C15.949 47.2477 15.165 46.4655 15.165 45.4977C15.165 44.53 15.949 43.7478 16.915 43.7478H22.0423C23.0083 43.7478 23.7923 44.53 23.7923 45.4977C23.7923 46.4637 23.0083 47.2477 22.0423 47.2477Z" fill="#DAEFF6"/>
<path d="M32.5892 47.2477H27.4619C26.4959 47.2477 25.7119 46.4655 25.7119 45.4977C25.7119 44.53 26.4959 43.7478 27.4619 43.7478H32.5892C33.5552 43.7478 34.3392 44.53 34.3392 45.4977C34.3392 46.4637 33.5552 47.2477 32.5892 47.2477Z" fill="#8BD5EC"/>
<path d="M43.1361 47.2477H38.0087C37.0428 47.2477 36.2588 46.4655 36.2588 45.4977C36.2588 44.53 37.0428 43.7478 38.0087 43.7478H43.1361C44.102 43.7478 44.886 44.53 44.886 45.4977C44.886 46.4637 44.102 47.2477 43.1361 47.2477Z" fill="#DAEFF6"/>
</g>
<defs>
<clipPath id="clip0">
<rect width="56" height="56" fill="white"/>
</clipPath>
</defs>
</svg>
