<svg width="42" height="42" viewBox="0 0 42 42" fill="none" xmlns="http://www.w3.org/2000/svg">
<path d="M10.5 0C9.05625 0 7.875 1.18125 7.875 2.625V39.375C7.875 40.8187 9.05625 42 10.5 42H36.75C38.1938 42 39.375 40.8187 39.375 39.375V10.5L28.875 0H10.5Z" fill="#E2E5E7"/>
<path d="M31.5 10.5H39.375L28.875 0V7.875C28.875 9.31875 30.0562 10.5 31.5 10.5Z" fill="#B0B7BD"/>
<path d="M39.375 18.375L31.5 10.5H39.375V18.375Z" fill="#CAD1D8"/>
<path d="M34.125 34.125C34.125 34.8469 33.5344 35.4375 32.8125 35.4375H3.9375C3.21562 35.4375 2.625 34.8469 2.625 34.125V21C2.625 20.2781 3.21562 19.6875 3.9375 19.6875H32.8125C33.5344 19.6875 34.125 20.2781 34.125 21V34.125Z" fill="#F15642"/>
<path d="M8.3457 24.8678C8.3457 24.5213 8.6187 24.1433 9.05839 24.1433H11.4826C12.8476 24.1433 14.0761 25.0568 14.0761 26.8077C14.0761 28.4667 12.8476 29.3907 11.4826 29.3907H9.73039V30.7767C9.73039 31.2387 9.43639 31.4999 9.05839 31.4999C8.71189 31.4999 8.3457 31.2387 8.3457 30.7767V24.8678ZM9.73039 25.465V28.0795H11.4826C12.1861 28.0795 12.7426 27.4587 12.7426 26.8077C12.7426 26.074 12.1861 25.465 11.4826 25.465H9.73039Z" fill="white"/>
<path d="M16.1307 31.4999C15.7842 31.4999 15.4062 31.3109 15.4062 30.8502V24.8888C15.4062 24.5121 15.7842 24.2378 16.1307 24.2378H18.5339C23.3298 24.2378 23.2248 31.4999 18.6284 31.4999H16.1307ZM16.7922 25.5188V30.2202H18.5339C21.3676 30.2202 21.4936 25.5188 18.5339 25.5188H16.7922Z" fill="white"/>
<path d="M24.9276 25.6028V27.271H27.6037C27.9817 27.271 28.3597 27.649 28.3597 28.0151C28.3597 28.3616 27.9817 28.6451 27.6037 28.6451H24.9276V30.8488C24.9276 31.2163 24.6664 31.4985 24.2989 31.4985C23.8369 31.4985 23.5547 31.2163 23.5547 30.8488V24.8875C23.5547 24.5108 23.8382 24.2365 24.2989 24.2365H27.9831C28.4451 24.2365 28.7181 24.5108 28.7181 24.8875C28.7181 25.2235 28.4451 25.6015 27.9831 25.6015H24.9276V25.6028Z" fill="white"/>
<path d="M32.8125 35.4375H7.875V36.75H32.8125C33.5344 36.75 34.125 36.1594 34.125 35.4375V34.125C34.125 34.8469 33.5344 35.4375 32.8125 35.4375Z" fill="#CAD1D8"/>
</svg>
