<svg width="18" height="16" viewBox="0 0 18 16" fill="none" xmlns="http://www.w3.org/2000/svg">
<path fill-rule="evenodd" clip-rule="evenodd" d="M13.5337 3.197C13.567 3.25527 13.6253 3.29689 13.7003 3.29689C15.7003 3.29689 17.3337 4.92841 17.3337 6.92619V11.8707C17.3337 13.8685 15.7003 15.5 13.7003 15.5H4.30033C2.29199 15.5 0.666992 13.8685 0.666992 11.8707V6.92619C0.666992 4.92841 2.29199 3.29689 4.30033 3.29689C4.36699 3.29689 4.43366 3.2636 4.45866 3.197L4.50866 3.09711C4.53739 3.03665 4.56687 2.97455 4.5968 2.9115C4.80999 2.46246 5.04585 1.96567 5.19199 1.6737C5.57533 0.924528 6.22533 0.508324 7.03366 0.5H10.9587C11.767 0.508324 12.4253 0.924528 12.8087 1.6737C12.9399 1.93592 13.1399 2.35833 13.3326 2.76545C13.3724 2.84942 13.4119 2.93274 13.4503 3.01387L13.5337 3.197ZM12.9253 6.39344C12.9253 6.80965 13.2587 7.14261 13.6753 7.14261C14.092 7.14261 14.4337 6.80965 14.4337 6.39344C14.4337 5.97724 14.092 5.63595 13.6753 5.63595C13.2587 5.63595 12.9253 5.97724 12.9253 6.39344ZM7.55864 7.68368C7.95031 7.29245 8.45864 7.08435 9.00031 7.08435C9.54197 7.08435 10.0503 7.29245 10.4336 7.67536C10.817 8.05826 11.0253 8.56603 11.0253 9.1071C11.017 10.2225 10.117 11.1299 9.00031 11.1299C8.45864 11.1299 7.95031 10.9217 7.56697 10.5388C7.18364 10.1559 6.97531 9.64816 6.97531 9.1071V9.09877C6.96697 8.57436 7.17531 8.06659 7.55864 7.68368ZM11.3087 11.4212C10.717 12.0122 9.90032 12.3785 9.00033 12.3785C8.12533 12.3785 7.30866 12.0372 6.68366 11.4212C6.06699 10.7969 5.72532 9.98114 5.72532 9.10711C5.71699 8.24141 6.05866 7.42565 6.67532 6.80134C7.30032 6.17703 8.12533 5.83575 9.00033 5.83575C9.87533 5.83575 10.7003 6.17703 11.317 6.79302C11.9337 7.41732 12.2753 8.24141 12.2753 9.10711C12.267 10.0144 11.9003 10.8302 11.3087 11.4212Z" fill="white"/>
</svg>
