<svg width="50" height="50" viewBox="0 0 50 50" fill="none" xmlns="http://www.w3.org/2000/svg">
<path d="M42.2591 17.2593H1.46484C0.655859 17.2593 0 17.9151 0 18.7241V42.676C0 43.485 0.655859 44.1408 1.46484 44.1408H42.2591C43.0681 44.1408 43.7239 43.485 43.7239 42.676V18.7241C43.7239 17.9151 43.0682 17.2593 42.2591 17.2593Z" fill="#0478F9"/>
<path d="M37.5518 5.4917C36.7428 5.4917 36.0869 6.14756 36.0869 6.95654C36.0869 7.76553 36.7428 8.42139 37.5518 8.42139C39.7721 8.42139 41.5784 10.2277 41.5784 12.448C41.5784 13.257 42.2343 13.9129 43.0433 13.9129C43.8522 13.9129 44.5081 13.257 44.5081 12.448C44.5082 8.6123 41.3876 5.4917 37.5518 5.4917Z" fill="#0478F9"/>
<path d="M37.5518 0C36.7428 0 36.0869 0.655859 36.0869 1.46484C36.0869 2.27383 36.7428 2.92969 37.5518 2.92969C42.8001 2.92969 47.07 7.19961 47.07 12.4479C47.07 13.2569 47.7259 13.9128 48.5348 13.9128C49.3438 13.9128 49.9997 13.2569 49.9997 12.4479C49.9997 5.58418 44.4156 0 37.5518 0V0Z" fill="#0478F9"/>
<path d="M37.5518 13.9128C38.3608 13.9128 39.0166 13.257 39.0166 12.448C39.0166 11.639 38.3608 10.9832 37.5518 10.9832C36.7427 10.9832 36.0869 11.639 36.0869 12.448C36.0869 13.257 36.7427 13.9128 37.5518 13.9128Z" fill="#0478F9"/>
<path d="M35.9834 47.0703H7.74121C6.93223 47.0703 6.27637 47.7262 6.27637 48.5352C6.27637 49.3441 6.93223 50 7.74121 50H35.9834C36.7924 50 37.4482 49.3441 37.4482 48.5352C37.4482 47.7262 36.7924 47.0703 35.9834 47.0703Z" fill="#0478F9"/>
</svg>
